<svg xmlns="http://www.w3.org/2000/svg" xmlns:xlink="http://www.w3.org/1999/xlink" class="httpgd" width="762.00" height="496.00" viewBox="0 0 609.60 396.80">
<defs>
  <style type='text/css'><![CDATA[
    .httpgd line, .httpgd polyline, .httpgd polygon, .httpgd path, .httpgd rect, .httpgd circle {
      fill: none;
      stroke: #000000;
      stroke-linecap: round;
      stroke-linejoin: round;
      stroke-miterlimit: 10.00;
    }
  ]]></style>
<clipPath id="c0"><rect x="0.00" y="0.00" width="609.60" height="396.80"/></clipPath>
<clipPath id="c1"><rect x="51.65" y="49.83" width="550.98" height="294.57"/></clipPath>
<clipPath id="c2"><rect x="0.00" y="0.00" width="609.60" height="396.80"/></clipPath>
</defs>
<rect width="100%" height="100%" style="stroke: none;fill: #FFFFFF;"/>
<g clip-path="url(#c0)">
</g><g clip-path="url(#c1)">
<polyline points="51.65,331.01 602.63,331.01" style="stroke-width: 1.36;stroke: #EBEBEB;stroke-linecap: butt;"/>
<polyline points="51.65,264.06 602.63,264.06" style="stroke-width: 1.36;stroke: #EBEBEB;stroke-linecap: butt;"/>
<polyline points="51.65,197.12 602.63,197.12" style="stroke-width: 1.36;stroke: #EBEBEB;stroke-linecap: butt;"/>
<polyline points="51.65,130.17 602.63,130.17" style="stroke-width: 1.36;stroke: #EBEBEB;stroke-linecap: butt;"/>
<polyline points="51.65,63.22 602.63,63.22" style="stroke-width: 1.36;stroke: #EBEBEB;stroke-linecap: butt;"/>
<polyline points="91.97,344.40 91.97,49.83" style="stroke-width: 1.36;stroke: #EBEBEB;stroke-linecap: butt;"/>
<polyline points="159.16,344.40 159.16,49.83" style="stroke-width: 1.36;stroke: #EBEBEB;stroke-linecap: butt;"/>
<polyline points="226.35,344.40 226.35,49.83" style="stroke-width: 1.36;stroke: #EBEBEB;stroke-linecap: butt;"/>
<polyline points="293.54,344.40 293.54,49.83" style="stroke-width: 1.36;stroke: #EBEBEB;stroke-linecap: butt;"/>
<polyline points="360.73,344.40 360.73,49.83" style="stroke-width: 1.36;stroke: #EBEBEB;stroke-linecap: butt;"/>
<polyline points="427.93,344.40 427.93,49.83" style="stroke-width: 1.36;stroke: #EBEBEB;stroke-linecap: butt;"/>
<polyline points="495.12,344.40 495.12,49.83" style="stroke-width: 1.36;stroke: #EBEBEB;stroke-linecap: butt;"/>
<polyline points="562.31,344.40 562.31,49.83" style="stroke-width: 1.36;stroke: #EBEBEB;stroke-linecap: butt;"/>
<line x1="91.97" y1="189.86" x2="91.97" y2="63.22" style="stroke-width: 1.07;stroke: #333333;stroke-linecap: butt;"/>
<line x1="91.97" y1="279.23" x2="91.97" y2="321.99" style="stroke-width: 1.07;stroke: #333333;stroke-linecap: butt;"/>
<polygon points="66.77,189.86 66.77,279.23 117.16,279.23 117.16,189.86 66.77,189.86" style="stroke-width: 1.07;stroke: #333333;stroke-linecap: butt;stroke-linejoin: miter;fill: #F8766D;" />
<line x1="66.77" y1="249.30" x2="117.16" y2="249.30" style="stroke-width: 2.13;stroke: #333333;stroke-linecap: butt;stroke-linejoin: miter;"/>
<line x1="159.16" y1="202.06" x2="159.16" y2="79.67" style="stroke-width: 1.07;stroke: #333333;stroke-linecap: butt;"/>
<line x1="159.16" y1="285.72" x2="159.16" y2="327.99" style="stroke-width: 1.07;stroke: #333333;stroke-linecap: butt;"/>
<polygon points="133.96,202.06 133.96,285.72 184.35,285.72 184.35,202.06 133.96,202.06" style="stroke-width: 1.07;stroke: #333333;stroke-linecap: butt;stroke-linejoin: miter;fill: #CD9600;" />
<line x1="133.96" y1="251.07" x2="184.35" y2="251.07" style="stroke-width: 2.13;stroke: #333333;stroke-linecap: butt;stroke-linejoin: miter;"/>
<line x1="226.35" y1="207.56" x2="226.35" y2="83.84" style="stroke-width: 1.07;stroke: #333333;stroke-linecap: butt;"/>
<line x1="226.35" y1="292.99" x2="226.35" y2="329.14" style="stroke-width: 1.07;stroke: #333333;stroke-linecap: butt;"/>
<polygon points="201.15,207.56 201.15,292.99 251.55,292.99 251.55,207.56 201.15,207.56" style="stroke-width: 1.07;stroke: #333333;stroke-linecap: butt;stroke-linejoin: miter;fill: #7CAE00;" />
<line x1="201.15" y1="258.71" x2="251.55" y2="258.71" style="stroke-width: 2.13;stroke: #333333;stroke-linecap: butt;stroke-linejoin: miter;"/>
<line x1="293.54" y1="234.61" x2="293.54" y2="183.73" style="stroke-width: 1.07;stroke: #333333;stroke-linecap: butt;"/>
<line x1="293.54" y1="290.84" x2="293.54" y2="331.01" style="stroke-width: 1.07;stroke: #333333;stroke-linecap: butt;"/>
<polygon points="268.34,234.61 268.34,290.84 318.74,290.84 318.74,234.61 268.34,234.61" style="stroke-width: 1.07;stroke: #333333;stroke-linecap: butt;stroke-linejoin: miter;fill: #00BE67;" />
<line x1="268.34" y1="269.42" x2="318.74" y2="269.42" style="stroke-width: 2.13;stroke: #333333;stroke-linecap: butt;stroke-linejoin: miter;"/>
<line x1="360.73" y1="248.53" x2="360.73" y2="180.78" style="stroke-width: 1.07;stroke: #333333;stroke-linecap: butt;"/>
<line x1="360.73" y1="302.63" x2="360.73" y2="325.12" style="stroke-width: 1.07;stroke: #333333;stroke-linecap: butt;"/>
<polygon points="335.54,248.53 335.54,302.63 385.93,302.63 385.93,248.53 335.54,248.53" style="stroke-width: 1.07;stroke: #333333;stroke-linecap: butt;stroke-linejoin: miter;fill: #00BFC4;" />
<line x1="335.54" y1="284.95" x2="385.93" y2="284.95" style="stroke-width: 2.13;stroke: #333333;stroke-linecap: butt;stroke-linejoin: miter;"/>
<line x1="427.93" y1="276.92" x2="427.93" y2="225.50" style="stroke-width: 1.07;stroke: #333333;stroke-linecap: butt;"/>
<line x1="427.93" y1="312.27" x2="427.93" y2="327.80" style="stroke-width: 1.07;stroke: #333333;stroke-linecap: butt;"/>
<polygon points="402.73,276.92 402.73,312.27 453.12,312.27 453.12,276.92 402.73,276.92" style="stroke-width: 1.07;stroke: #333333;stroke-linecap: butt;stroke-linejoin: miter;fill: #00A9FF;" />
<line x1="402.73" y1="293.79" x2="453.12" y2="293.79" style="stroke-width: 2.13;stroke: #333333;stroke-linecap: butt;stroke-linejoin: miter;"/>
<line x1="495.12" y1="267.01" x2="495.12" y2="201.40" style="stroke-width: 1.07;stroke: #333333;stroke-linecap: butt;"/>
<line x1="495.12" y1="315.75" x2="495.12" y2="331.01" style="stroke-width: 1.07;stroke: #333333;stroke-linecap: butt;"/>
<polygon points="469.92,267.01 469.92,315.75 520.32,315.75 520.32,267.01 469.92,267.01" style="stroke-width: 1.07;stroke: #333333;stroke-linecap: butt;stroke-linejoin: miter;fill: #C77CFF;" />
<line x1="469.92" y1="294.32" x2="520.32" y2="294.32" style="stroke-width: 2.13;stroke: #333333;stroke-linecap: butt;stroke-linejoin: miter;"/>
<line x1="562.31" y1="295.66" x2="562.31" y2="262.72" style="stroke-width: 1.07;stroke: #333333;stroke-linecap: butt;"/>
<line x1="562.31" y1="318.96" x2="562.31" y2="328.87" style="stroke-width: 1.07;stroke: #333333;stroke-linecap: butt;"/>
<polygon points="537.11,295.66 537.11,318.96 587.51,318.96 587.51,295.66 537.11,295.66" style="stroke-width: 1.07;stroke: #333333;stroke-linecap: butt;stroke-linejoin: miter;fill: #FF61CC;" />
<line x1="537.11" y1="310.39" x2="587.51" y2="310.39" style="stroke-width: 2.13;stroke: #333333;stroke-linecap: butt;stroke-linejoin: miter;"/>
</g><g clip-path="url(#c2)">
<g><text x="45.37" y="335.03" text-anchor="end" style="font-family: Arial;font-size: 11.20px;fill: #4D4D4D;" textLength="21.77px" lengthAdjust="spacingAndGlyphs">0.00</text></g>
<g><text x="45.37" y="268.08" text-anchor="end" style="font-family: Arial;font-size: 11.20px;fill: #4D4D4D;" textLength="21.77px" lengthAdjust="spacingAndGlyphs">0.25</text></g>
<g><text x="45.37" y="201.13" text-anchor="end" style="font-family: Arial;font-size: 11.20px;fill: #4D4D4D;" textLength="21.77px" lengthAdjust="spacingAndGlyphs">0.50</text></g>
<g><text x="45.37" y="134.18" text-anchor="end" style="font-family: Arial;font-size: 11.20px;fill: #4D4D4D;" textLength="21.77px" lengthAdjust="spacingAndGlyphs">0.75</text></g>
<g><text x="45.37" y="67.23" text-anchor="end" style="font-family: Arial;font-size: 11.20px;fill: #4D4D4D;" textLength="21.77px" lengthAdjust="spacingAndGlyphs">1.00</text></g>
<g><text x="67.28" y="359.29" style="font-family: Arial;font-size: 12.00px;fill: #4D4D4D;" textLength="49.36px" lengthAdjust="spacingAndGlyphs">CHEESE</text></g>
<g><text x="72.30" y="370.55" style="font-family: Arial;font-size: 12.00px;fill: #4D4D4D;" textLength="39.33px" lengthAdjust="spacingAndGlyphs">Espsim</text></g>
<g><text x="134.48" y="359.29" style="font-family: Arial;font-size: 12.00px;fill: #4D4D4D;" textLength="49.36px" lengthAdjust="spacingAndGlyphs">CHEESE</text></g>
<g><text x="132.48" y="370.55" style="font-family: Arial;font-size: 12.00px;fill: #4D4D4D;" textLength="53.36px" lengthAdjust="spacingAndGlyphs">Shapesim</text></g>
<g><text x="209.01" y="359.29" style="font-family: Arial;font-size: 12.00px;fill: #4D4D4D;" textLength="34.68px" lengthAdjust="spacingAndGlyphs">ROCS</text></g>
<g><text x="212.01" y="370.55" style="font-family: Arial;font-size: 12.00px;fill: #4D4D4D;" textLength="28.68px" lengthAdjust="spacingAndGlyphs">Color</text></g>
<g><text x="267.53" y="359.29" style="font-family: Arial;font-size: 12.00px;fill: #4D4D4D;" textLength="52.03px" lengthAdjust="spacingAndGlyphs">AutoDock</text></g>
<g><text x="279.53" y="370.55" style="font-family: Arial;font-size: 12.00px;fill: #4D4D4D;" textLength="28.02px" lengthAdjust="spacingAndGlyphs">VINA</text></g>
<g><text x="343.40" y="359.29" style="font-family: Arial;font-size: 12.00px;fill: #4D4D4D;" textLength="34.68px" lengthAdjust="spacingAndGlyphs">ROCS</text></g>
<g><text x="343.38" y="370.55" style="font-family: Arial;font-size: 12.00px;fill: #4D4D4D;" textLength="34.70px" lengthAdjust="spacingAndGlyphs">Shape</text></g>
<g><text x="410.92" y="359.29" style="font-family: Arial;font-size: 12.00px;fill: #4D4D4D;" textLength="34.01px" lengthAdjust="spacingAndGlyphs">VAMS</text></g>
<g><text x="482.45" y="359.29" style="font-family: Arial;font-size: 12.00px;fill: #4D4D4D;" textLength="25.34px" lengthAdjust="spacingAndGlyphs">USR</text></g>
<g><text x="480.78" y="370.55" style="font-family: Arial;font-size: 12.00px;fill: #4D4D4D;" textLength="28.68px" lengthAdjust="spacingAndGlyphs">Color</text></g>
<g><text x="549.64" y="359.29" style="font-family: Arial;font-size: 12.00px;fill: #4D4D4D;" textLength="25.34px" lengthAdjust="spacingAndGlyphs">USR</text></g>
<g><text transform="translate(17.02,197.12) rotate(-90.00)" text-anchor="middle" style="font-family: Arial;font-size: 14.00px;" textLength="59.89px" lengthAdjust="spacingAndGlyphs">BEDROC</text></g>
<g><text x="51.65" y="39.76" style="font-family: Arial;font-size: 14.00px;" textLength="152.50px" lengthAdjust="spacingAndGlyphs">BEDROC  α=20 (n=101)</text></g>
<g><text x="51.65" y="19.03" style="font-family: Arial;font-size: 16.80px;" textLength="243.59px" lengthAdjust="spacingAndGlyphs">DUD-E Benchmark Performance</text></g>
</g>
</svg>