<svg xmlns="http://www.w3.org/2000/svg" xmlns:xlink="http://www.w3.org/1999/xlink" class="httpgd" width="500.00" height="504.00" viewBox="0 0 400.00 403.20">
<defs>
  <style type='text/css'><![CDATA[
    .httpgd line, .httpgd polyline, .httpgd polygon, .httpgd path, .httpgd rect, .httpgd circle {
      fill: none;
      stroke: #000000;
      stroke-linecap: round;
      stroke-linejoin: round;
      stroke-miterlimit: 10.00;
    }
  ]]></style>
<clipPath id="c0"><rect x="0.00" y="0.00" width="400.00" height="403.20"/></clipPath>
<clipPath id="c1"><rect x="51.65" y="49.83" width="341.38" height="300.97"/></clipPath>
<clipPath id="c2"><rect x="0.00" y="0.00" width="400.00" height="403.20"/></clipPath>
</defs>
<rect width="100%" height="100%" style="stroke: none;fill: #FFFFFF;"/>
<g clip-path="url(#c0)">
</g><g clip-path="url(#c1)">
<polyline points="51.65,337.12 393.03,337.12" style="stroke-width: 1.36;stroke: #EBEBEB;stroke-linecap: butt;"/>
<polyline points="51.65,268.72 393.03,268.72" style="stroke-width: 1.36;stroke: #EBEBEB;stroke-linecap: butt;"/>
<polyline points="51.65,200.32 393.03,200.32" style="stroke-width: 1.36;stroke: #EBEBEB;stroke-linecap: butt;"/>
<polyline points="51.65,131.91 393.03,131.91" style="stroke-width: 1.36;stroke: #EBEBEB;stroke-linecap: butt;"/>
<polyline points="51.65,63.51 393.03,63.51" style="stroke-width: 1.36;stroke: #EBEBEB;stroke-linecap: butt;"/>
<polyline points="84.69,350.80 84.69,49.83" style="stroke-width: 1.36;stroke: #EBEBEB;stroke-linecap: butt;"/>
<polyline points="139.75,350.80 139.75,49.83" style="stroke-width: 1.36;stroke: #EBEBEB;stroke-linecap: butt;"/>
<polyline points="194.81,350.80 194.81,49.83" style="stroke-width: 1.36;stroke: #EBEBEB;stroke-linecap: butt;"/>
<polyline points="249.87,350.80 249.87,49.83" style="stroke-width: 1.36;stroke: #EBEBEB;stroke-linecap: butt;"/>
<polyline points="304.93,350.80 304.93,49.83" style="stroke-width: 1.36;stroke: #EBEBEB;stroke-linecap: butt;"/>
<polyline points="359.99,350.80 359.99,49.83" style="stroke-width: 1.36;stroke: #EBEBEB;stroke-linecap: butt;"/>
<line x1="84.69" y1="197.58" x2="84.69" y2="118.23" style="stroke-width: 1.07;stroke: #333333;stroke-linecap: butt;"/>
<line x1="84.69" y1="265.98" x2="84.69" y2="326.18" style="stroke-width: 1.07;stroke: #333333;stroke-linecap: butt;"/>
<polygon points="64.04,197.58 64.04,265.98 105.33,265.98 105.33,197.58 64.04,197.58" style="stroke-width: 1.07;stroke: #333333;stroke-linecap: butt;stroke-linejoin: miter;fill: #F8766D;" />
<line x1="64.04" y1="227.68" x2="105.33" y2="227.68" style="stroke-width: 2.13;stroke: #333333;stroke-linecap: butt;stroke-linejoin: miter;"/>
<line x1="139.75" y1="189.37" x2="139.75" y2="63.51" style="stroke-width: 1.07;stroke: #333333;stroke-linecap: butt;"/>
<line x1="139.75" y1="290.61" x2="139.75" y2="334.38" style="stroke-width: 1.07;stroke: #333333;stroke-linecap: butt;"/>
<polygon points="119.10,189.37 119.10,290.61 160.39,290.61 160.39,189.37 119.10,189.37" style="stroke-width: 1.07;stroke: #333333;stroke-linecap: butt;stroke-linejoin: miter;fill: #B79F00;" />
<line x1="119.10" y1="244.09" x2="160.39" y2="244.09" style="stroke-width: 2.13;stroke: #333333;stroke-linecap: butt;stroke-linejoin: miter;"/>
<line x1="194.81" y1="200.08" x2="194.81" y2="63.51" style="stroke-width: 1.07;stroke: #333333;stroke-linecap: butt;"/>
<line x1="194.81" y1="305.58" x2="194.81" y2="336.61" style="stroke-width: 1.07;stroke: #333333;stroke-linecap: butt;"/>
<polygon points="174.16,200.08 174.16,305.58 215.46,305.58 215.46,200.08 174.16,200.08" style="stroke-width: 1.07;stroke: #333333;stroke-linecap: butt;stroke-linejoin: miter;fill: #00BA38;" />
<line x1="174.16" y1="255.04" x2="215.46" y2="255.04" style="stroke-width: 2.13;stroke: #333333;stroke-linecap: butt;stroke-linejoin: miter;"/>
<line x1="249.87" y1="211.06" x2="249.87" y2="64.25" style="stroke-width: 1.07;stroke: #333333;stroke-linecap: butt;"/>
<line x1="249.87" y1="309.59" x2="249.87" y2="337.12" style="stroke-width: 1.07;stroke: #333333;stroke-linecap: butt;"/>
<polygon points="229.22,211.06 229.22,309.59 270.52,309.59 270.52,211.06 229.22,211.06" style="stroke-width: 1.07;stroke: #333333;stroke-linecap: butt;stroke-linejoin: miter;fill: #00BFC4;" />
<line x1="229.22" y1="264.84" x2="270.52" y2="264.84" style="stroke-width: 2.13;stroke: #333333;stroke-linecap: butt;stroke-linejoin: miter;"/>
<line x1="304.93" y1="238.62" x2="304.93" y2="134.65" style="stroke-width: 1.07;stroke: #333333;stroke-linecap: butt;"/>
<line x1="304.93" y1="312.50" x2="304.93" y2="334.38" style="stroke-width: 1.07;stroke: #333333;stroke-linecap: butt;"/>
<polygon points="284.28,238.62 284.28,312.50 325.58,312.50 325.58,238.62 284.28,238.62" style="stroke-width: 1.07;stroke: #333333;stroke-linecap: butt;stroke-linejoin: miter;fill: #619CFF;" />
<line x1="284.28" y1="279.66" x2="325.58" y2="279.66" style="stroke-width: 2.13;stroke: #333333;stroke-linecap: butt;stroke-linejoin: miter;"/>
<line x1="359.99" y1="238.62" x2="359.99" y2="131.91" style="stroke-width: 1.07;stroke: #333333;stroke-linecap: butt;"/>
<line x1="359.99" y1="312.50" x2="359.99" y2="337.12" style="stroke-width: 1.07;stroke: #333333;stroke-linecap: butt;"/>
<polygon points="339.34,238.62 339.34,312.50 380.64,312.50 380.64,238.62 339.34,238.62" style="stroke-width: 1.07;stroke: #333333;stroke-linecap: butt;stroke-linejoin: miter;fill: #F564E3;" />
<line x1="339.34" y1="285.13" x2="380.64" y2="285.13" style="stroke-width: 2.13;stroke: #333333;stroke-linecap: butt;stroke-linejoin: miter;"/>
</g><g clip-path="url(#c2)">
<g><text x="45.37" y="341.13" text-anchor="end" style="font-family: Arial;font-size: 11.20px;fill: #4D4D4D;" textLength="21.77px" lengthAdjust="spacingAndGlyphs">0.00</text></g>
<g><text x="45.37" y="272.73" text-anchor="end" style="font-family: Arial;font-size: 11.20px;fill: #4D4D4D;" textLength="21.77px" lengthAdjust="spacingAndGlyphs">0.25</text></g>
<g><text x="45.37" y="204.33" text-anchor="end" style="font-family: Arial;font-size: 11.20px;fill: #4D4D4D;" textLength="21.77px" lengthAdjust="spacingAndGlyphs">0.50</text></g>
<g><text x="45.37" y="135.93" text-anchor="end" style="font-family: Arial;font-size: 11.20px;fill: #4D4D4D;" textLength="21.77px" lengthAdjust="spacingAndGlyphs">0.75</text></g>
<g><text x="45.37" y="67.52" text-anchor="end" style="font-family: Arial;font-size: 11.20px;fill: #4D4D4D;" textLength="21.77px" lengthAdjust="spacingAndGlyphs">1.00</text></g>
<g><text x="67.68" y="365.69" style="font-family: Arial;font-size: 12.00px;fill: #4D4D4D;" textLength="34.01px" lengthAdjust="spacingAndGlyphs">GOLD</text></g>
<g><text x="121.74" y="365.69" style="font-family: Arial;font-size: 12.00px;fill: #4D4D4D;" textLength="36.01px" lengthAdjust="spacingAndGlyphs">GLIDE</text></g>
<g><text x="170.13" y="365.69" style="font-family: Arial;font-size: 12.00px;fill: #4D4D4D;" textLength="49.36px" lengthAdjust="spacingAndGlyphs">CHEESE</text></g>
<g><text x="175.14" y="376.95" style="font-family: Arial;font-size: 12.00px;fill: #4D4D4D;" textLength="39.33px" lengthAdjust="spacingAndGlyphs">Espsim</text></g>
<g><text x="225.19" y="365.69" style="font-family: Arial;font-size: 12.00px;fill: #4D4D4D;" textLength="49.36px" lengthAdjust="spacingAndGlyphs">CHEESE</text></g>
<g><text x="223.19" y="376.95" style="font-family: Arial;font-size: 12.00px;fill: #4D4D4D;" textLength="53.36px" lengthAdjust="spacingAndGlyphs">Shapesim</text></g>
<g><text x="285.92" y="365.69" style="font-family: Arial;font-size: 12.00px;fill: #4D4D4D;" textLength="38.02px" lengthAdjust="spacingAndGlyphs">FLEXX</text></g>
<g><text x="332.31" y="365.69" style="font-family: Arial;font-size: 12.00px;fill: #4D4D4D;" textLength="55.36px" lengthAdjust="spacingAndGlyphs">SURFLEX</text></g>
<g><text transform="translate(17.02,200.32) rotate(-90.00)" text-anchor="middle" style="font-family: Arial;font-size: 14.00px;" textLength="59.89px" lengthAdjust="spacingAndGlyphs">BEDROC</text></g>
<g><text x="51.65" y="39.76" style="font-family: Arial;font-size: 14.00px;" textLength="164.17px" lengthAdjust="spacingAndGlyphs">BEDROC  α=80.5 (n=101)</text></g>
<g><text x="51.65" y="19.03" style="font-family: Arial;font-size: 16.80px;" textLength="243.59px" lengthAdjust="spacingAndGlyphs">DUD-E Benchmark Performance</text></g>
</g>
</svg>